<svg width="55" height="42" viewBox="0 0 55 42" fill="none" xmlns="http://www.w3.org/2000/svg">
<g clip-path="url(#clip0_529_208)">
<path d="M46.2362 29.6815C50.6668 29.6815 54.2584 26.0899 54.2584 21.6593C54.2584 17.2288 50.6668 13.6371 46.2362 13.6371C41.8057 13.6371 38.214 17.2288 38.214 21.6593C38.214 26.0899 41.8057 29.6815 46.2362 29.6815Z" fill="white"/>
<path d="M16.0171 26.3427C18.6037 26.3427 20.7005 24.2459 20.7005 21.6593C20.7005 19.0728 18.6037 16.976 16.0171 16.976C13.4306 16.976 11.3337 19.0728 11.3337 21.6593C11.3337 24.2459 13.4306 26.3427 16.0171 26.3427Z" fill="white"/>
<path d="M30.1918 11.2308C33.2931 11.2308 35.8072 8.71671 35.8072 5.6154C35.8072 2.5141 33.2931 0 30.1918 0C27.0905 0 24.5764 2.5141 24.5764 5.6154C24.5764 8.71671 27.0905 11.2308 30.1918 11.2308Z" fill="white"/>
<path d="M30.1918 42C33.2931 42 35.8072 39.4859 35.8072 36.3846C35.8072 33.2833 33.2931 30.7692 30.1918 30.7692C27.0905 30.7692 24.5764 33.2833 24.5764 36.3846C24.5764 39.4859 27.0905 42 30.1918 42Z" fill="white"/>
<path d="M2.78988 8.02227C4.11913 8.02227 5.1967 6.94469 5.1967 5.61544C5.1967 4.28619 4.11913 3.20862 2.78988 3.20862C1.46063 3.20862 0.383057 4.28619 0.383057 5.61544C0.383057 6.94469 1.46063 8.02227 2.78988 8.02227Z" fill="white"/>
<path d="M2.78988 38.7914C4.11913 38.7914 5.1967 37.7139 5.1967 36.3846C5.1967 35.0554 4.11913 33.9778 2.78988 33.9778C1.46063 33.9778 0.383057 35.0554 0.383057 36.3846C0.383057 37.7139 1.46063 38.7914 2.78988 38.7914Z" fill="white"/>
</g>
<defs>
<clipPath id="clip0_529_208">
<rect width="110.258" height="42" fill="white" transform="translate(-56)"/>
</clipPath>
</defs>
</svg>
