<svg width="75" height="14" viewBox="0 0 75 14" fill="none" xmlns="http://www.w3.org/2000/svg">
<g clip-path="url(#clip0_334_2050)">
<path d="M10.0259 3.79146L8.86516 4.92566C8.75191 4.76295 8.50654 4.49615 8.12905 4.12167C7.37408 3.41339 6.47282 3.08558 5.42529 3.13822C4.37776 3.19086 3.5001 3.59644 2.7923 4.35258C2.45256 4.70672 2.18124 5.10871 1.97834 5.55856C1.77544 6.00841 1.64804 6.48339 1.59614 6.98708C1.54423 7.48958 1.61501 8.01001 1.80847 8.55199C2.00194 9.09277 2.31572 9.59766 2.74984 10.0667C3.46707 10.8419 4.31406 11.2607 5.29081 11.3241C6.26756 11.3863 7.12399 11.0573 7.86009 10.3406C8.30364 9.90035 8.60092 9.30214 8.75191 8.54601H8.1149C7.61473 8.54601 7.1523 8.55079 6.72763 8.56037H6.10477L6.09061 7.06724H6.72763C7.14286 7.05767 7.60529 7.05288 8.1149 7.05288C8.39802 7.05288 8.80382 7.0481 9.3323 7.03853L10.4931 7.02297C10.4836 8.80324 10.0826 10.148 9.28983 11.0573C8.74247 11.6986 8.11254 12.1688 7.40003 12.4643C6.68752 12.761 5.99152 12.8842 5.31204 12.8316C4.63256 12.7789 3.97904 12.615 3.35146 12.3434C2.72388 12.0706 2.17417 11.7045 1.7023 11.2451C0.9662 10.5368 0.466027 9.69935 0.201785 8.73265C-0.0624573 7.76475 -0.0671759 6.79446 0.187629 5.81699C0.442434 4.84071 0.937889 3.9793 1.67399 3.23273C2.24023 2.66803 2.8678 2.2421 3.55672 1.95616C4.24446 1.66902 4.91568 1.53263 5.56685 1.54579C6.21802 1.56134 6.83851 1.67261 7.42834 1.88318C8.01817 2.09375 8.53957 2.38567 8.99256 2.75895C9.45499 3.15138 9.79944 3.49595 10.0259 3.79146V3.79146Z" fill="#111012"/>
<path d="M52.3907 2.70821C52.872 3.24421 53.1268 3.90463 53.1552 4.68948C53.174 5.38818 53.0395 5.99596 52.7517 6.51161C52.4639 7.02966 52.0416 7.43166 51.4848 7.7176C51.2205 7.8516 50.8336 7.95688 50.324 8.03465C49.8144 8.11002 49.3095 8.13515 48.8093 8.10643H48.781V8.451C48.7716 8.94871 48.7668 9.49667 48.7668 10.0949V11.7387C48.7574 11.9601 48.7527 12.1407 48.7527 12.2843V12.4997L47.1672 12.4853V12.2843C47.1672 12.1312 47.172 11.9493 47.1814 11.7387V10.0877C47.1814 9.52299 47.1861 8.74293 47.1955 7.74751C47.1861 7.35509 47.1814 6.96745 47.1814 6.5846C47.8042 6.57503 48.3469 6.57503 48.8093 6.5846C49.1585 6.59417 49.4487 6.59177 49.6799 6.57622C49.9111 6.56186 50.1588 6.51879 50.4231 6.4482C50.6873 6.37522 50.8973 6.27473 51.053 6.14671C51.2087 6.0175 51.3385 5.83564 51.4423 5.60114C51.5461 5.36665 51.598 5.07711 51.598 4.73135C51.598 4.46335 51.5296 4.21689 51.3928 3.99316C51.2559 3.76824 51.0695 3.59356 50.8336 3.46913C50.475 3.27771 49.8002 3.17721 48.8093 3.16764L47.1814 3.15328V1.66016H49.5596C50.8336 1.6793 51.7773 2.02865 52.3907 2.70821Z" fill="#111012"/>
<path d="M54.9932 12.4856L60.2745 1L65.3706 12.4856H63.5869L60.2603 4.64667L56.7355 12.4856H54.9943H54.9932Z" fill="#111012"/>
<path d="M69.7624 4.37262L68.8281 5.96625L66.4216 1.67351L68.2477 1.646L69.7624 4.37262V4.37262ZM69.8615 12.4987L69.8898 7.35887L73.1315 1.67351L75.0001 1.65916L71.4753 7.8171L71.4611 12.4975H69.8615V12.4987Z" fill="#111012"/>
<path d="M20.2604 5.80225V7.33844H16.1128L16.0845 10.9552H20.3737V12.4914L14.4849 12.5058V5.81541L20.2604 5.80225Z" fill="#111012"/>
<path d="M20.3737 1.66748H14.4849V3.21803H20.3737V1.66748Z" fill="#111012"/>
<path d="M30.6132 5.80225V7.33844H26.4656L26.4373 10.9552H30.7265V12.4914L24.8376 12.5058V5.81541L30.6132 5.80225Z" fill="#111012"/>
<path d="M30.7265 1.66748H24.8376V3.21803H30.7265V1.66748Z" fill="#111012"/>
<path d="M36.804 1.66748L36.8323 12.4914H35.2043L35.1902 1.66748H36.804Z" fill="#111012"/>
<path d="M38.9403 6.44103L43.5704 1.67332L41.5037 1.66016L38.2136 5.02328V8.18061L41.6441 12.4853H43.8807L38.9403 6.44103Z" fill="#111012"/>
</g>
<defs>
<clipPath id="clip0_334_2050">
<rect width="75" height="14" fill="white"/>
</clipPath>
</defs>
</svg>
